<svg xmlns="http://www.w3.org/2000/svg" width="1em" height="1em" viewBox="0 0 24 24"><path fill="black" d="M10 22H8.75A6.76 6.76 0 0 1 2 15.25v-6.5A6.76 6.76 0 0 1 8.75 2h6.5A6.76 6.76 0 0 1 22 8.75V10a.75.75 0 1 1-1.5 0V8.75a5.26 5.26 0 0 0-5.25-5.25h-6.5A5.26 5.26 0 0 0 3.5 8.75v6.5a5.26 5.26 0 0 0 5.25 5.25H10a.75.75 0 1 1 0 1.5"/><path fill="black" d="M21.52 14.53a1.89 1.89 0 0 1-1.48 1.76l-3.16.52l-.09.09a.418.418 0 0 0-.09.14l-.5 2.91a1.94 1.94 0 0 1-.68 1.06a1.91 1.91 0 0 1-1.1.41h-.09a1.94 1.94 0 0 1-1.79-1.24l-2.79-7.9a1.9 1.9 0 0 1 .45-2a1.82 1.82 0 0 1 .94-.51a1.87 1.87 0 0 1 1.07.07l8 2.78a1.93 1.93 0 0 1 1.29 1.91z"/></svg>